<svg xmlns="http://www.w3.org/2000/svg" viewBox="0 0 65.03 54.83"><defs><style>.cls-1{opacity:0.96;}.cls-2{fill:#e2cc54;}.cls-3{fill:#006c89;}.cls-4{fill:#262525;}</style></defs><title>Logo Blue Icon</title><g id="Layer_2" data-name="Layer 2"><g id="Layer_4" data-name="Layer 4"><g class="cls-1"><path class="cls-2" d="M53.69,29.48v.43A24.9,24.9,0,0,1,30.22,54.78a17.79,17.79,0,0,1-.6-4.57C29.62,38.76,40.39,29.48,53.69,29.48Z"/><path class="cls-3" d="M28.78,5A24.92,24.92,0,0,1,53.69,29.48c-13.3,0-24.07,9.28-24.07,20.73a17.79,17.79,0,0,0,.6,4.57c-.48,0-.95,0-1.44,0A24.92,24.92,0,1,1,28.78,5Z"/></g></g><g id="Layer_1-2" data-name="Layer 1"><path class="cls-4" d="M0,32.66c1.91-.53,3.41.33,5,.94,1,.41,2,.89,3.1,1.2.76.23,1.68.37,2.21-.43s-.1-1.6-.65-2.13c-1.51-1.48-3.16-2.83-4.68-4.3a12.65,12.65,0,0,1-2.3-3c2.94.54,6.17.23,7.46,3.8a3.51,3.51,0,0,0,1.81,1.55c2,1,4.32,2.07,6.16.08s1.32-4-.29-6c-.27-.32-.2-.9-.31-1.48C20.89,24.62,24.71,33,23.8,36.43c-.1.39-.38.74-.44,1.12-.24,1.54.88,3.72-.46,4.49-1.11.64-3.1-.45-4.68-.38C10.48,42,5.41,37,0,32.66Z"/><path class="cls-4" d="M39.58,2.1c.61,1,.61,1.78-.67,2.16A8,8,0,0,1,36,5c-2.21-.27-3.6.91-5.1,2.18a16.36,16.36,0,0,1-6.37,2.94,1,1,0,0,1-1.13-.22c-.32-.48.33-.55.56-.81,1.76-2,4.25-3.12,5.63-5.58.95-1.7.47-2.08-1.08-2.33A7.26,7.26,0,0,1,27.22.72c3.29-1.62,6.5.06,9.65-.29C39,.19,41.11,0,43,1.46c.38.3.94.57.69,1.07s-.73.1-1.16-.07A22.69,22.69,0,0,0,40,1.77l-.45-.19Z"/><path class="cls-4" d="M65,12.15c.18,1.2-.53,1.71-.94,2.32-1,1.43-2.6,2.82-2.87,4.21-.72,3.77-2.86,3.84-5.87,3.52a29.78,29.78,0,0,0-10,.8,9.1,9.1,0,0,1,7.37-3.74c4.29-.1,7.11-2.27,9.77-5.16A5.92,5.92,0,0,1,65,12.15Z"/></g></g></svg>